<mxfile host="app.diagrams.net" modified="2024-05-10T09:16:38.057Z" agent="Mozilla/5.0 (Windows NT 10.0; Win64; x64) AppleWebKit/537.36 (KHTML, like Gecko) Chrome/124.0.0.0 Safari/537.36" etag="vUoFhsnv3Lgk_Kt9O0IL" version="24.2.8" type="device">
  <diagram name="Page-1" id="sXDqbEf51VgiMFX1_1aL">
    <mxGraphModel dx="2647" dy="1487" grid="1" gridSize="10" guides="1" tooltips="1" connect="1" arrows="1" fold="1" page="1" pageScale="1" pageWidth="850" pageHeight="1100" math="0" shadow="0">
      <root>
        <mxCell id="0" />
        <mxCell id="1" parent="0" />
        <mxCell id="mTMtIXZAmFH7ucFH98JX-9" value="" style="rounded=0;whiteSpace=wrap;html=1;" parent="1" vertex="1">
          <mxGeometry x="80" y="410" width="590" height="1050" as="geometry" />
        </mxCell>
        <mxCell id="mTMtIXZAmFH7ucFH98JX-3" value="&lt;font style=&quot;font-size: 36px;&quot;&gt;1DCNN&lt;/font&gt;" style="rounded=1;whiteSpace=wrap;html=1;fillColor=#f8cecc;strokeColor=#b85450;" parent="1" vertex="1">
          <mxGeometry x="200" y="610" width="320" height="60" as="geometry" />
        </mxCell>
        <mxCell id="mTMtIXZAmFH7ucFH98JX-4" value="" style="rounded=1;whiteSpace=wrap;html=1;fillColor=#eeeeee;strokeColor=#36393d;imageWidth=54;" parent="1" vertex="1">
          <mxGeometry x="186.5" y="730" width="313.5" height="60" as="geometry" />
        </mxCell>
        <mxCell id="mTMtIXZAmFH7ucFH98JX-5" value="" style="rounded=1;whiteSpace=wrap;html=1;fillColor=#eeeeee;strokeColor=#36393d;imageWidth=54;" parent="1" vertex="1">
          <mxGeometry x="196.5" y="740" width="313.5" height="60" as="geometry" />
        </mxCell>
        <mxCell id="mTMtIXZAmFH7ucFH98JX-6" value="&lt;font style=&quot;font-size: 36px;&quot;&gt;Bi-GRU&lt;/font&gt;" style="rounded=1;whiteSpace=wrap;html=1;fillColor=#eeeeee;strokeColor=#36393d;imageWidth=54;" parent="1" vertex="1">
          <mxGeometry x="206.5" y="750" width="323.5" height="60" as="geometry" />
        </mxCell>
        <mxCell id="mTMtIXZAmFH7ucFH98JX-7" value="&lt;font style=&quot;font-size: 36px;&quot;&gt;Lead wise max pool&lt;/font&gt;" style="rounded=1;whiteSpace=wrap;html=1;fillColor=#b0e3e6;strokeColor=#0e8088;" parent="1" vertex="1">
          <mxGeometry x="215" y="860" width="335" height="70" as="geometry" />
        </mxCell>
        <mxCell id="mTMtIXZAmFH7ucFH98JX-8" value="&lt;font style=&quot;font-size: 36px;&quot;&gt;2DCNN&lt;/font&gt;" style="rounded=1;whiteSpace=wrap;html=1;fillColor=#fad7ac;strokeColor=#b46504;" parent="1" vertex="1">
          <mxGeometry x="200" y="970" width="360" height="60" as="geometry" />
        </mxCell>
        <mxCell id="mTMtIXZAmFH7ucFH98JX-10" value="" style="rounded=1;whiteSpace=wrap;html=1;fillColor=#d5e8d4;gradientColor=#97d077;strokeColor=#82b366;" parent="1" vertex="1">
          <mxGeometry x="180" y="1070" width="340" height="75" as="geometry" />
        </mxCell>
        <mxCell id="mTMtIXZAmFH7ucFH98JX-13" value="" style="rounded=1;whiteSpace=wrap;html=1;fillColor=#d5e8d4;gradientColor=#97d077;strokeColor=#82b366;" parent="1" vertex="1">
          <mxGeometry x="190" y="1080" width="360" height="75" as="geometry" />
        </mxCell>
        <mxCell id="mTMtIXZAmFH7ucFH98JX-14" value="&lt;font style=&quot;font-size: 36px;&quot;&gt;Transformer Encoders&lt;/font&gt;" style="rounded=1;whiteSpace=wrap;html=1;fillColor=#d5e8d4;gradientColor=#97d077;strokeColor=#82b366;" parent="1" vertex="1">
          <mxGeometry x="200" y="1090" width="360" height="75" as="geometry" />
        </mxCell>
        <mxCell id="mTMtIXZAmFH7ucFH98JX-16" style="edgeStyle=orthogonalEdgeStyle;rounded=0;orthogonalLoop=1;jettySize=auto;html=1;exitX=1;exitY=0.5;exitDx=0;exitDy=0;entryX=0.014;entryY=0.679;entryDx=0;entryDy=0;entryPerimeter=0;" parent="1" source="mTMtIXZAmFH7ucFH98JX-3" target="mTMtIXZAmFH7ucFH98JX-4" edge="1">
          <mxGeometry relative="1" as="geometry">
            <Array as="points">
              <mxPoint x="540" y="640" />
              <mxPoint x="540" y="700" />
              <mxPoint x="170" y="700" />
              <mxPoint x="170" y="771" />
            </Array>
          </mxGeometry>
        </mxCell>
        <mxCell id="mTMtIXZAmFH7ucFH98JX-17" style="edgeStyle=orthogonalEdgeStyle;rounded=0;orthogonalLoop=1;jettySize=auto;html=1;exitX=1;exitY=0.5;exitDx=0;exitDy=0;entryX=-0.002;entryY=0.584;entryDx=0;entryDy=0;entryPerimeter=0;" parent="1" source="mTMtIXZAmFH7ucFH98JX-6" target="mTMtIXZAmFH7ucFH98JX-7" edge="1">
          <mxGeometry relative="1" as="geometry" />
        </mxCell>
        <mxCell id="mTMtIXZAmFH7ucFH98JX-18" style="edgeStyle=orthogonalEdgeStyle;rounded=0;orthogonalLoop=1;jettySize=auto;html=1;exitX=1;exitY=0.5;exitDx=0;exitDy=0;entryX=0.022;entryY=0.499;entryDx=0;entryDy=0;entryPerimeter=0;" parent="1" source="mTMtIXZAmFH7ucFH98JX-7" target="mTMtIXZAmFH7ucFH98JX-8" edge="1">
          <mxGeometry relative="1" as="geometry">
            <Array as="points">
              <mxPoint x="570" y="895" />
              <mxPoint x="570" y="950" />
              <mxPoint x="190" y="950" />
              <mxPoint x="190" y="1000" />
            </Array>
          </mxGeometry>
        </mxCell>
        <mxCell id="mTMtIXZAmFH7ucFH98JX-19" style="edgeStyle=orthogonalEdgeStyle;rounded=0;orthogonalLoop=1;jettySize=auto;html=1;exitX=1;exitY=0.5;exitDx=0;exitDy=0;entryX=0;entryY=0.602;entryDx=0;entryDy=0;entryPerimeter=0;" parent="1" source="mTMtIXZAmFH7ucFH98JX-8" target="mTMtIXZAmFH7ucFH98JX-10" edge="1">
          <mxGeometry relative="1" as="geometry" />
        </mxCell>
        <mxCell id="vKctFHdl0p97AvZlsO9G-3" style="edgeStyle=orthogonalEdgeStyle;rounded=0;orthogonalLoop=1;jettySize=auto;html=1;exitX=1;exitY=0.5;exitDx=0;exitDy=0;entryX=0.5;entryY=0;entryDx=0;entryDy=0;" edge="1" parent="1" source="mTMtIXZAmFH7ucFH98JX-20" target="vKctFHdl0p97AvZlsO9G-2">
          <mxGeometry relative="1" as="geometry" />
        </mxCell>
        <mxCell id="mTMtIXZAmFH7ucFH98JX-20" value="&lt;font style=&quot;font-size: 36px;&quot;&gt;Classifier Head&lt;/font&gt;" style="rounded=1;whiteSpace=wrap;html=1;fillColor=#cce5ff;strokeColor=#36393d;" parent="1" vertex="1">
          <mxGeometry x="210" y="1210" width="370" height="65" as="geometry" />
        </mxCell>
        <mxCell id="mTMtIXZAmFH7ucFH98JX-21" style="edgeStyle=orthogonalEdgeStyle;rounded=0;orthogonalLoop=1;jettySize=auto;html=1;exitX=1;exitY=0.5;exitDx=0;exitDy=0;entryX=0.001;entryY=0.583;entryDx=0;entryDy=0;entryPerimeter=0;" parent="1" source="mTMtIXZAmFH7ucFH98JX-14" target="mTMtIXZAmFH7ucFH98JX-20" edge="1">
          <mxGeometry relative="1" as="geometry" />
        </mxCell>
        <mxCell id="mTMtIXZAmFH7ucFH98JX-26" value="&lt;font style=&quot;font-size: 36px;&quot;&gt;Data&lt;/font&gt;" style="shape=cube;whiteSpace=wrap;html=1;boundedLbl=1;backgroundOutline=1;darkOpacity=0.05;darkOpacity2=0.1;" parent="1" vertex="1">
          <mxGeometry x="190" y="475" width="320" height="75" as="geometry" />
        </mxCell>
        <mxCell id="mTMtIXZAmFH7ucFH98JX-28" style="edgeStyle=orthogonalEdgeStyle;rounded=0;orthogonalLoop=1;jettySize=auto;html=1;entryX=0;entryY=0.45;entryDx=0;entryDy=0;entryPerimeter=0;" parent="1" source="mTMtIXZAmFH7ucFH98JX-26" target="mTMtIXZAmFH7ucFH98JX-3" edge="1">
          <mxGeometry relative="1" as="geometry" />
        </mxCell>
        <mxCell id="vKctFHdl0p97AvZlsO9G-1" style="edgeStyle=orthogonalEdgeStyle;rounded=0;orthogonalLoop=1;jettySize=auto;html=1;exitX=0.5;exitY=1;exitDx=0;exitDy=0;" edge="1" parent="1" source="mTMtIXZAmFH7ucFH98JX-3" target="mTMtIXZAmFH7ucFH98JX-3">
          <mxGeometry relative="1" as="geometry" />
        </mxCell>
        <mxCell id="vKctFHdl0p97AvZlsO9G-2" value="&lt;font style=&quot;font-size: 36px;&quot;&gt;Prediction&lt;/font&gt;" style="rounded=0;whiteSpace=wrap;html=1;fillColor=#fff2cc;strokeColor=#d6b656;" vertex="1" parent="1">
          <mxGeometry x="210" y="1330" width="385" height="60" as="geometry" />
        </mxCell>
      </root>
    </mxGraphModel>
  </diagram>
</mxfile>
